<?xml version="1.0" encoding="UTF-8"?>
<svg id="Layer_2" data-name="Layer 2" xmlns="http://www.w3.org/2000/svg" viewBox="0 0 54.94 54.94">
  <defs>
    <style>
      .cls-1 {
        fill: #d4ff33;
      }
    </style>
  </defs>
  <g id="Layer_2-2" data-name="Layer 2">
    <path class="cls-1" d="M47.44,43.19c7.25-9.19,7.25-22.26,0-31.45l6.63-6.63c1.17-1.17,1.17-3.07,0-4.24s-3.07-1.17-4.24,0l-6.63,6.63c-9.19-7.25-22.26-7.25-31.45,0L5.12.88C3.95-.29,2.05-.29.88.88S-.29,3.95.88,5.12l6.63,6.63C.26,20.94.26,34.01,7.51,43.19l-6.63,6.63c-1.17,1.17-1.17,3.07,0,4.24.59.59,1.35.88,2.12.88s1.54-.29,2.12-.88l6.63-6.63c4.59,3.62,10.16,5.44,15.72,5.44s11.13-1.82,15.72-5.44l6.63,6.63c.59.59,1.35.88,2.12.88s1.54-.29,2.12-.88c1.17-1.17,1.17-3.07,0-4.24l-6.63-6.63ZM43.14,38.9l-3.53-3.53c1.52-2.33,2.34-5.05,2.34-7.9s-.82-5.57-2.34-7.9l3.53-3.53c4.96,6.79,4.96,16.07,0,22.86ZM18.99,27.47c0-2.27.88-4.4,2.48-6,1.6-1.6,3.73-2.48,6-2.48s4.39.88,6,2.48,2.48,3.73,2.48,6-.88,4.39-2.48,6-3.73,2.48-6,2.48-4.4-.88-6-2.48c-1.6-1.6-2.48-3.73-2.48-6ZM27.47,8.06c4.02,0,8.03,1.26,11.43,3.74l-3.53,3.53c-2.33-1.52-5.05-2.34-7.89-2.34s-5.57.82-7.9,2.34l-3.53-3.53c3.39-2.48,7.41-3.74,11.43-3.74ZM11.8,16.04l3.53,3.53c-1.52,2.33-2.34,5.05-2.34,7.9s.82,5.57,2.34,7.9l-3.53,3.53c-4.95-6.79-4.95-16.07,0-22.86ZM16.04,43.14l3.53-3.53c2.33,1.52,5.05,2.34,7.9,2.34s5.57-.82,7.89-2.34l3.53,3.53c-6.79,4.95-16.07,4.95-22.86,0Z"/>
  </g>
</svg>