<?xml version="1.0" encoding="UTF-8"?>
<svg id="Layer_2" data-name="Layer 2" xmlns="http://www.w3.org/2000/svg" xmlns:xlink="http://www.w3.org/1999/xlink" viewBox="0 0 164.72 228.85">
  <defs>
    <style>
      .cls-1 {
        fill: #5e33ff;
      }

      .cls-2 {
        fill: url(#linear-gradient-2);
      }

      .cls-3, .cls-4 {
        fill: #fff;
      }

      .cls-4 {
        opacity: .5;
      }

      .cls-5 {
        fill: url(#linear-gradient-3);
      }

      .cls-6 {
        fill: #d4ff33;
      }

      .cls-7 {
        fill: url(#linear-gradient);
      }
    </style>
    <linearGradient id="linear-gradient" x1="82.4" y1="55.45" x2="82.4" y2="211.83" gradientUnits="userSpaceOnUse">
      <stop offset="0" stop-color="#ffff79" stop-opacity=".5"/>
      <stop offset=".5" stop-color="#35a140" stop-opacity=".3"/>
      <stop offset="1" stop-color="#000" stop-opacity="0"/>
    </linearGradient>
    <linearGradient id="linear-gradient-2" x1="35.69" y1="124.15" x2="35.69" y2="194.69" gradientUnits="userSpaceOnUse">
      <stop offset="0" stop-color="#ff8eff" stop-opacity=".8"/>
      <stop offset="1" stop-color="#000" stop-opacity="0"/>
    </linearGradient>
    <linearGradient id="linear-gradient-3" x1="129.03" y1="124.15" x2="129.03" y2="194.69" xlink:href="#linear-gradient-2"/>
  </defs>
  <g id="Layer_2-2" data-name="Layer 2">
    <g>
      <path class="cls-6" d="M80.47,225.85c-18.38,0-34.93-10.1-43.18-26.35l-.16-.31c-9.33-18.43-17.34-40.01-22.54-60.76-.75-2.97-1.42-5.85-1.99-8.57-1.05-4.9-1.88-9.55-2.48-13.81-.94-6.51-1.42-12.55-1.42-17.92C8.7,46.58,33.23,9.57,71.2,3.82c3.61-.55,7.37-.82,11.2-.82s7.56.28,11.16.82c37.95,5.76,62.47,42.78,62.47,94.31,0,5.37-.48,11.4-1.42,17.93-.63,4.44-1.47,9.1-2.49,13.84-.6,2.8-1.26,5.65-1.97,8.49-5.23,20.82-13.24,42.4-22.56,60.79l-.15.29c-8.25,16.28-24.8,26.38-43.2,26.38h-3.78Z"/>
      <path d="M82.4,6c3.72,0,7.29.27,10.71.79,40.51,6.15,59.92,47.26,59.92,91.34,0,5.3-.48,11.2-1.39,17.5-.62,4.37-1.44,8.94-2.45,13.64-.59,2.75-1.24,5.55-1.95,8.39-5.05,20.11-13,41.77-22.32,60.16-.05.1-.1.2-.15.3-7.72,15.23-23.44,24.73-40.52,24.73h-3.78c-17.07,0-32.78-9.49-40.51-24.71-.05-.1-.1-.21-.16-.31-9.31-18.38-17.27-40.03-22.31-60.14-.72-2.86-1.38-5.68-1.97-8.46-1-4.68-1.83-9.24-2.44-13.6-.91-6.3-1.39-12.2-1.39-17.5C11.7,54.03,31.11,12.92,71.65,6.79c3.43-.52,7.01-.79,10.75-.79M82.4,0c-3.98,0-7.89.29-11.65.86-20.78,3.14-37.87,15-49.43,34.28-10.08,16.82-15.63,39.19-15.63,62.99,0,5.51.49,11.69,1.45,18.36.6,4.31,1.45,9.02,2.51,14,.58,2.75,1.26,5.67,2.02,8.67,5.25,20.96,13.34,42.76,22.78,61.39l.16.31c8.77,17.27,26.34,27.99,45.86,27.99h3.78c19.53,0,37.11-10.74,45.87-28.02l.16-.31c9.41-18.57,17.5-40.38,22.78-61.4.72-2.88,1.39-5.77,2-8.59,1.03-4.81,1.88-9.54,2.52-14.06.96-6.65,1.45-12.83,1.45-18.34,0-23.79-5.55-46.16-15.62-62.98C131.86,15.87,114.78,4.01,94.01.86c-3.74-.57-7.65-.86-11.61-.86h0Z"/>
    </g>
    <g>
      <path class="cls-7" d="M80.51,225.85c-18.38,0-34.92-10.09-43.18-26.34l-.1-.2c-9.37-18.51-17.38-40.06-22.58-60.79-.76-3.02-1.45-5.98-2.05-8.79-1.03-4.83-1.85-9.45-2.46-13.72-.93-6.53-1.41-12.55-1.41-17.88C8.74,46.6,33.26,9.58,71.2,3.82c3.61-.55,7.38-.82,11.2-.82s7.56.28,11.16.82c37.97,5.74,62.51,42.76,62.51,94.31,0,5.38-.48,11.42-1.42,17.97-.64,4.49-1.49,9.18-2.52,13.94-.55,2.59-1.18,5.28-1.92,8.24-5.19,20.76-13.2,42.37-22.55,60.86l-.18.36c-8.25,16.25-24.8,26.35-43.18,26.35h-3.78Z"/>
      <path d="M82.4,6c3.72,0,7.29.27,10.71.79,40.54,6.13,59.96,47.24,59.96,91.34,0,5.31-.48,11.22-1.39,17.54-.63,4.4-1.46,9.01-2.48,13.74-.57,2.67-1.21,5.39-1.9,8.14-5.03,20.13-13,41.82-22.32,60.24-.06.12-.12.23-.18.35-7.73,15.22-23.44,24.71-40.51,24.71h-3.78c-17.06,0-32.77-9.49-40.5-24.7-.05-.09-.1-.19-.14-.28-9.3-18.36-17.26-39.99-22.3-60.08-.74-2.94-1.42-5.84-2.03-8.69-.99-4.65-1.81-9.18-2.42-13.51-.9-6.29-1.38-12.17-1.38-17.46C11.74,54.05,31.14,12.94,71.65,6.79c3.43-.52,7.01-.79,10.75-.79M82.4,0c-3.98,0-7.89.29-11.65.86-20.77,3.15-37.85,15.01-49.39,34.3-10.07,16.82-15.62,39.18-15.62,62.98,0,5.47.48,11.63,1.44,18.31.61,4.33,1.45,9.01,2.49,13.91.61,2.85,1.31,5.84,2.08,8.91,5.25,20.93,13.34,42.71,22.77,61.33l.15.29c8.77,17.26,26.34,27.98,45.85,27.98h3.78c19.52,0,37.09-10.73,45.86-28l.18-.36c9.45-18.69,17.55-40.53,22.79-61.49.75-2.98,1.39-5.71,1.95-8.34,1.04-4.82,1.9-9.58,2.55-14.14.96-6.68,1.45-12.87,1.45-18.39,0-23.8-5.55-46.17-15.63-62.99C131.88,15.85,114.79,4,94.01.86c-3.74-.57-7.65-.86-11.61-.86h0Z"/>
    </g>
    <g>
      <path class="cls-1" d="M52.18,205.06c-11.96,0-26.32-12.8-35.25-25.49-12.18-16.87-19.57-42.75-8.57-62.45,3.96-6.59,9.62-10.04,16.41-10.04,5.69,0,11.95,2.45,18.1,7.09,7.62,5.6,14.81,15.91,18.74,26.87l.09.24c5.57,15.74,7.76,31.89,6.19,45.52-2.19,15.89-10.78,18.25-15.71,18.25Z"/>
      <path d="M24.77,110.08c5.26,0,10.95,2.46,16.3,6.48,7.32,5.38,14.1,15.39,17.72,25.49l.1.28c4.96,14.01,7.65,30,6.02,44.13-1.54,11.19-6.44,15.6-12.73,15.6-10.08,0-23.73-11.33-32.8-24.22-11.75-16.27-18.65-40.91-8.41-59.26,3.59-5.97,8.46-8.5,13.79-8.5M24.77,104.08h0c-7.79,0-14.52,4.05-18.93,11.41l-.05.08-.05.08c-11.63,20.84-3.98,47.99,8.76,65.67,9.38,13.31,24.66,26.74,37.68,26.74,4.75,0,16.09-2.02,18.68-20.78v-.06s.02-.06.02-.06c1.63-14.08-.62-30.71-6.32-46.82l-.02-.05-.02-.05-.09-.24c-4.12-11.47-11.69-22.29-19.77-28.24-6.67-5.02-13.54-7.67-19.88-7.67h0Z"/>
    </g>
    <g>
      <path class="cls-1" d="M112.54,205.06c-4.93,0-13.52-2.36-15.7-18.19-1.59-13.7.61-29.85,6.16-45.54l.12-.33c3.92-10.93,11.11-21.24,18.76-26.86,6.12-4.61,12.39-7.06,18.08-7.06,6.79,0,12.45,3.44,16.36,9.95,11.04,19.79,3.65,45.66-8.55,62.56-8.91,12.66-23.27,25.46-35.23,25.46h0Z"/>
      <path d="M139.96,110.08c5.33,0,10.2,2.52,13.79,8.5,10.24,18.36,3.34,42.99-8.41,59.26-9.07,12.89-22.71,24.22-32.8,24.22-6.29,0-11.19-4.41-12.73-15.6-1.63-14.13,1.05-30.11,6.02-44.13l.1-.28c3.62-10.1,10.41-20.11,17.72-25.49,5.34-4.03,11.04-6.48,16.3-6.48M139.96,104.08c-6.34,0-13.21,2.65-19.88,7.67-8.08,5.95-15.65,16.77-19.77,28.24l-.09.24-.02.05-.02.05c-5.71,16.11-7.95,32.74-6.32,46.82v.06s.02.06.02.06c2.58,18.75,13.92,20.78,18.68,20.78,13.03,0,28.31-13.42,37.68-26.74,12.74-17.67,20.39-44.82,8.76-65.67l-.05-.08-.05-.08c-4.42-7.36-11.14-11.41-18.93-11.41h0Z"/>
    </g>
    <path class="cls-2" d="M58.89,142.34c4.96,14.01,7.65,30,6.02,44.13-4.01,29.13-30.81,12.3-45.53-8.62-11.75-16.27-18.65-40.91-8.41-59.26,7.12-11.86,19.33-10.12,30.09-2.02,7.32,5.38,14.1,15.39,17.72,25.49l.1.28Z"/>
    <path class="cls-5" d="M105.83,142.34c-4.96,14.01-7.65,30-6.02,44.13,4.01,29.13,30.81,12.3,45.53-8.62,11.75-16.27,18.65-40.91,8.41-59.26-7.12-11.86-19.33-10.12-30.09-2.02-7.32,5.38-14.1,15.39-17.72,25.49l-.1.28Z"/>
    <circle class="cls-4" cx="29.1" cy="130.52" r="13.63"/>
    <circle class="cls-4" cx="82.36" cy="46.56" r="31.33"/>
    <circle class="cls-4" cx="135.62" cy="130.52" r="13.63"/>
    <circle class="cls-3" cx="29.1" cy="118.93" r="4.56"/>
    <circle class="cls-3" cx="82.36" cy="15.22" r="4.56"/>
    <circle class="cls-3" cx="135.62" cy="118.93" r="4.56"/>
  </g>
</svg>