<?xml version="1.0" encoding="UTF-8"?>
<svg id="Layer_2" data-name="Layer 2" xmlns="http://www.w3.org/2000/svg" viewBox="0 0 85.61 157.03">
  <defs>
    <style>
      .cls-1 {
        fill: #5e33ff;
      }
    </style>
  </defs>
  <g id="Layer_2-2" data-name="Layer 2">
    <path class="cls-1" d="M85.6,124.98c-.27-8.33-6.72-15.1-15.02-15.76-.44-.03-.87-.05-1.3-.05-.27,0-.54.01-.81.02l-5.56-4.63c1.34-2.11,2.65-4.4,3.91-6.82,3.83-2.68,7.23-6.38,9.63-9.78,6.4-8.89,10.19-22.65,4.22-33.41.26-2.29.4-4.46.4-6.47,0-12.57-3.19-24.16-8.99-32.62C65.15,5.35,55.02,0,42.8,0S20.46,5.35,13.53,15.46c-5.8,8.46-9,20.05-9,32.62,0,2.01.14,4.18.4,6.47-5.96,10.76-2.18,24.52,4.23,33.41,2.4,3.4,5.8,7.11,9.63,9.79,1.26,2.42,2.57,4.7,3.91,6.81l-5.57,4.63c-.27-.01-.54-.02-.81-.02-.43,0-.86.02-1.29.05C6.73,109.88.27,116.65,0,124.98c-.15,4.46,1.48,8.68,4.59,11.89,1.86,1.92,4.11,3.33,6.58,4.15-.17.77-.26,1.57-.26,2.38,0,7.64,7.7,13.63,17.52,13.63,6.01,0,11.22-2.24,14.36-5.72,3.15,3.48,8.36,5.72,14.36,5.72,9.83,0,17.52-5.99,17.52-13.63,0-.81-.08-1.61-.25-2.38,2.46-.82,4.71-2.23,6.58-4.15,3.1-3.21,4.73-7.43,4.59-11.89ZM75.06,78.32s-.02.05-.03.08c-.96,2.19-2.15,4.25-3.47,6.08-2.59,3.68-6.01,7.09-9.33,9.12-1.98,1.21-3.92,1.94-5.65,1.94-2.87,0-5.11-2.02-5.81-7.13-.75-6.45.48-13.75,2.75-20.15l.05-.12c1.65-4.62,4.75-9.19,8.09-11.65,2.44-1.83,5.04-2.96,7.44-2.96,1.99,0,3.83.77,5.33,2.53.34.4.67.85.97,1.35,2.32,4.16,2.71,9.02,1.87,13.77-.44,2.45-1.2,4.86-2.21,7.14ZM14.04,84.48c-1.32-1.83-2.5-3.89-3.47-6.08-.01-.03-.02-.05-.03-.08-.99-2.25-1.75-4.64-2.18-7.06-.87-4.78-.49-9.67,1.84-13.85.3-.5.63-.95.97-1.35,1.5-1.76,3.35-2.53,5.33-2.53,2.4,0,5,1.13,7.44,2.96,3.35,2.46,6.44,7.03,8.1,11.65l.05.12c2.26,6.4,3.49,13.7,2.74,20.15-.7,5.11-2.94,7.13-5.81,7.13-1.73,0-3.67-.73-5.65-1.94-3.32-2.03-6.74-5.44-9.33-9.12ZM69.27,135.84c-.23,0-.47-.01-.7-.02-4.93-.33-9.01-4.2-9.56-9.12-.15-1.28-.06-2.52.23-3.69.11-.43,0-.89-.31-1.22l-2.14-2.36c.63,1.64.97,3.43.97,5.29,0,3.99-1.57,7.61-4.11,10.29-.38.4-.08,1.04.43,1.04.04,0,.07-.01.11-.01.95-.17,1.94-.26,2.97-.26,6.36,0,11.52,3.41,11.52,7.62s-5.16,7.63-11.52,7.63-11.53-3.42-11.53-7.63c0-1.12.37-2.18,1.03-3.14.28-.41-.05-.94-.52-.94-.04,0-.09,0-.14.02-1.03.22-2.1.33-3.2.34-1.1-.01-2.17-.12-3.2-.34-.05-.02-.09-.02-.14-.02-.47,0-.8.53-.51.94.65.96,1.02,2.02,1.02,3.14,0,4.21-5.16,7.63-11.53,7.63s-11.52-3.42-11.52-7.63,5.16-7.62,11.52-7.62c1.03,0,2.03.09,2.97.26.04,0,.08.01.11.01.51,0,.81-.64.43-1.04-2.54-2.68-4.1-6.3-4.1-10.29,0-1.86.34-3.65.96-5.29l-2.14,2.36c-.3.33-.42.79-.31,1.22.29,1.17.38,2.41.24,3.69-.56,4.92-4.63,8.79-9.57,9.12-.23.01-.46.02-.69.02-5.83,0-10.52-4.81-10.34-10.67.17-5.21,4.3-9.56,9.5-9.97.27-.02.55-.03.82-.03.7,0,1.37.07,2.03.2.08.01.16.02.24.02.31,0,.61-.11.86-.32l11.31-9.41c-.99-1.28-1.97-2.68-2.92-4.18.39.04.79.06,1.18.06,2.36,0,10.18-.89,11.76-12.31v-.06s.01-.07.01-.07c.8-6.91-.28-15.02-3.05-22.84l-.02-.05v-.05s-.05-.09-.05-.09c-2.12-5.89-5.91-11.26-10.14-14.39-3.62-2.71-7.43-4.15-11.03-4.15-2.15,0-4.16.5-5.95,1.45-.02-.3-.02-.6-.02-.9C10.53,26.24,20.96,6,42.8,6s32.27,20.24,32.27,42.08c0,.3,0,.6-.02.9-1.79-.95-3.8-1.45-5.95-1.45-3.6,0-7.41,1.44-11.02,4.15-4.24,3.13-8.03,8.5-10.15,14.39l-.03.09-.04.1c-2.77,7.82-3.85,15.93-3.05,22.84v.07s.02.06.02.06c1.57,11.42,9.39,12.31,11.75,12.31.39,0,.79-.02,1.18-.06-.95,1.5-1.93,2.9-2.92,4.18l11.32,9.41c.24.21.54.32.86.32.08,0,.16-.01.23-.02.66-.13,1.34-.2,2.03-.2.27,0,.55.01.83.03,5.19.41,9.33,4.76,9.49,9.97.19,5.86-4.51,10.67-10.33,10.67Z"/>
  </g>
</svg>